<?xml version="1.0" encoding="utf-8"?>
<!-- Generator: Adobe Illustrator 24.0.0, SVG Export Plug-In . SVG Version: 6.00 Build 0)  -->
<svg version="1.1" id="Capa_1" xmlns="http://www.w3.org/2000/svg" xmlns:xlink="http://www.w3.org/1999/xlink" x="0px" y="0px"
	 viewBox="0 0 42.2 42.2" style="enable-background:new 0 0 42.2 42.2;" xml:space="preserve">
<style type="text/css">
	.st0{fill:#B80F0F;}
</style>
<title>el-trueque-app-icono-7</title>
<path class="st0" d="M41,18.3L41,18.3L23.8,1.1C23.1,0.4,22.1,0,21.1,0c-1,0-2,0.4-2.7,1.1L1.1,18.3l0,0c-1.5,1.5-1.5,4,0,5.5
	c0.7,0.7,1.6,1.1,2.6,1.1h0.8v12.6c0,2.5,2,4.5,4.5,4.5c0,0,0,0,0,0h6.7c0.7,0,1.2-0.6,1.2-1.2V31c0-1.1,0.9-2.1,2.1-2.1h4
	c1.1,0,2.1,0.9,2.1,2.1v9.9c0,0.7,0.6,1.2,1.2,1.2h6.7c2.5,0,4.6-2,4.6-4.5c0,0,0,0,0,0V25h0.6c2.1,0,3.9-1.8,3.9-3.9
	C42.1,20,41.7,19.1,41,18.3z M39.3,22.1c-0.3,0.3-0.6,0.4-1,0.4h-1.8c-0.7,0-1.2,0.6-1.2,1.2v13.9c0,1.1-0.9,2.1-2.1,2.1h-5.5V31
	c0-2.5-2-4.5-4.5-4.5h-4c-2.5,0-4.5,2-4.5,4.5v8.7H9.1c-1.1,0-2.1-0.9-2.1-2.1c0,0,0,0,0,0V23.7c0-0.7-0.6-1.2-1.2-1.2H3.8
	c-0.8,0-1.4-0.6-1.4-1.4c0-0.4,0.1-0.7,0.4-1l0,0L20.1,2.9c0.6-0.5,1.4-0.5,2,0l17.2,17.2l0,0C39.8,20.6,39.8,21.5,39.3,22.1
	C39.2,22.1,39.2,22.1,39.3,22.1L39.3,22.1z"/>
</svg>
