<svg id="Capa_1" data-name="Capa 1" xmlns="http://www.w3.org/2000/svg" viewBox="0 0 52.87 52.87"><defs><style>.cls-1{fill:#fff;}.cls-2{fill:#ff1515;}</style></defs><title>el-trueque-app-icono-2</title><circle class="cls-1" cx="26.44" cy="26.44" r="26.44"/><path class="cls-2" d="M42.26,23h0L30.14,10.89a2.72,2.72,0,0,0-1.94-.8,2.68,2.68,0,0,0-1.93.8L14.15,23h0A2.73,2.73,0,0,0,16,27.68h.57v8.93a3.2,3.2,0,0,0,3.2,3.2h4.74a.87.87,0,0,0,.87-.87v-7a1.47,1.47,0,0,1,1.46-1.46h2.8a1.46,1.46,0,0,1,1.46,1.46v7a.87.87,0,0,0,.87.87h4.75a3.21,3.21,0,0,0,3.2-3.2V27.68h.45A2.73,2.73,0,0,0,42.26,23ZM41,25.65a1,1,0,0,1-.7.29H39a.87.87,0,0,0-.87.87v9.8a1.47,1.47,0,0,1-1.46,1.46H32.8V31.94a3.2,3.2,0,0,0-3.2-3.2H26.8a3.21,3.21,0,0,0-3.2,3.2v6.13H19.73a1.46,1.46,0,0,1-1.46-1.46v-9.8a.87.87,0,0,0-.87-.87H16.06a1,1,0,0,1-.68-.29,1,1,0,0,1,0-1.41h0L27.5,12.12a1,1,0,0,1,1.41,0L41,24.24h0a1,1,0,0,1,0,1.4Zm0,0" transform="translate(-1.77 -1.77)"/></svg>