<svg id="Capa_1" data-name="Capa 1" xmlns="http://www.w3.org/2000/svg" viewBox="0 0 42.32 42.32"><defs><style>.cls-1{fill:#ff1515;}</style></defs><title>el-trueque-app-icono-8</title><path class="cls-1" d="M38,37.43a21.14,21.14,0,1,0-14.94,6.21A21,21,0,0,0,38,37.43ZM4.4,22.48A18.68,18.68,0,1,1,36.72,35.23a8.76,8.76,0,0,0-7.75-9c.16-.16.32-.32.47-.49a9.38,9.38,0,0,0,2.32-6.18,1,1,0,0,0,0-.25,8.68,8.68,0,1,0-14.66,6.94,8.75,8.75,0,0,0-7.63,9A18.62,18.62,0,0,1,4.4,22.48ZM16.88,20a6.2,6.2,0,0,1,12.4-.2,6.49,6.49,0,0,1-5.86,6.39A6.19,6.19,0,0,1,16.88,20Zm0,20.1V35a1.24,1.24,0,1,0-2.48,0V39a18.21,18.21,0,0,1-2.48-1.57V35a6.25,6.25,0,0,1,6.2-6.28H28A6.25,6.25,0,0,1,34.24,35v2.49A18.21,18.21,0,0,1,31.76,39V35a1.24,1.24,0,0,0-2.48,0V40.1a18.66,18.66,0,0,1-12.4,0Z" transform="translate(-1.92 -1.32)"/></svg>