<?xml version="1.0" encoding="utf-8"?>
<!-- Generator: Adobe Illustrator 24.0.0, SVG Export Plug-In . SVG Version: 6.00 Build 0)  -->
<svg version="1.1" id="Capa_1" xmlns="http://www.w3.org/2000/svg" xmlns:xlink="http://www.w3.org/1999/xlink" x="0px" y="0px"
	 viewBox="0 0 42.3 42.3" style="enable-background:new 0 0 42.3 42.3;" xml:space="preserve">
<style type="text/css">
	.st0{fill:#B80F0F;}
</style>
<title>el-trueque-app-icono-8</title>
<path class="st0" d="M36.1,36.1c8.2-8.3,8.2-21.7,0-29.9S14.4-2,6.1,6.3s-8.2,21.7,0,29.9c4,4,9.3,6.2,15,6.2
	C26.7,42.3,32.1,40.1,36.1,36.1z M2.5,21.2c0-10.3,8.4-18.7,18.7-18.7s18.7,8.4,18.7,18.7c0,4.7-1.8,9.3-5,12.8
	c0.2-4.6-3.2-8.5-7.8-9c0.2-0.2,0.3-0.3,0.5-0.5c1.5-1.7,2.3-3.9,2.3-6.2c0-0.1,0-0.2,0-0.3c-0.4-4.8-4.5-8.4-9.3-8s-8.4,4.5-8,9.3
	c0.2,2.1,1.1,4.1,2.6,5.6c-4.5,0.6-7.8,4.5-7.6,9C4.3,30.5,2.5,25.9,2.5,21.2z M15,18.7c-0.1-3.4,2.7-6.2,6.1-6.3
	c3.4-0.1,6.2,2.7,6.3,6.1c0,3.3-2.6,6.1-5.9,6.4c-3.4,0.2-6.3-2.4-6.5-5.8C15,18.9,15,18.8,15,18.7z M15,38.8v-5.1
	c0-0.7-0.6-1.2-1.2-1.2s-1.2,0.6-1.2,1.2c0,0,0,0,0,0v4c-0.9-0.5-1.7-1-2.5-1.6v-2.4c0-3.4,2.8-6.3,6.2-6.3h9.9
	c3.5,0,6.2,2.8,6.2,6.3c0,0,0,0,0,0v2.5c-0.8,0.6-1.6,1.1-2.5,1.5v-4c0-0.7-0.6-1.2-1.2-1.2c-0.7,0-1.2,0.6-1.2,1.2v5.1
	C23.3,40.2,19,40.2,15,38.8z"/>
</svg>
