<svg id="Capa_1" data-name="Capa 1" xmlns="http://www.w3.org/2000/svg" viewBox="0 0 42.16 42.17"><defs><style>.cls-1{fill:#ff1515;}</style></defs><title>el-trueque-app-icono-7</title><path class="cls-1" d="M43,19.74h0L25.83,2.54A3.85,3.85,0,0,0,23.08,1.4a3.81,3.81,0,0,0-2.74,1.14L3.14,19.73h0a3.88,3.88,0,0,0,2.58,6.62h.81V39a4.54,4.54,0,0,0,4.54,4.54h6.73A1.23,1.23,0,0,0,19,42.33V32.41a2.08,2.08,0,0,1,2.08-2.08h4a2.08,2.08,0,0,1,2.07,2.08v9.92a1.23,1.23,0,0,0,1.23,1.23H35.1A4.55,4.55,0,0,0,39.65,39V26.36h.63A3.88,3.88,0,0,0,43,19.74Zm-1.75,3.74a1.39,1.39,0,0,1-1,.41H38.41a1.24,1.24,0,0,0-1.23,1.24V39a2.08,2.08,0,0,1-2.08,2.07H29.61V32.41a4.55,4.55,0,0,0-4.54-4.55h-4a4.55,4.55,0,0,0-4.55,4.55v8.68H11.06A2.07,2.07,0,0,1,9,39V25.13a1.25,1.25,0,0,0-1.24-1.24H5.85a1.41,1.41,0,0,1-1-2.41h0l17.2-17.2a1.42,1.42,0,0,1,2,0l17.19,17.2h0a1.41,1.41,0,0,1,0,2Zm0,0" transform="translate(-2 -1.4)"/></svg>