<svg id="Capa_1" data-name="Capa 1" xmlns="http://www.w3.org/2000/svg" viewBox="0 0 41.57 41.57"><defs><style>.cls-1{fill:#fff;}</style></defs><title>el-trueque-app-icono-5</title><path class="cls-1" d="M25.08,41h-21a2.26,2.26,0,0,1-1.79-.88,2.33,2.33,0,0,1-.42-1.91l.9-3.61a6.78,6.78,0,0,1,4.42-4.78l6.63-2.2a3.59,3.59,0,0,0,.64-2.13A7.36,7.36,0,0,1,12.1,21a2,2,0,0,1-.59-.87,12.08,12.08,0,0,1-.9-3.78,2.65,2.65,0,0,1,.05-.5,3.75,3.75,0,0,1,.74-1.48v0c0-.74.1-1.81.1-3.22,0-3.74,4.16-9.29,9.9-9.29,4.74,0,7.06,2.49,7.8,4.18,1.48,1,2.18,2.68,2.18,5.11v3.29a3.74,3.74,0,0,1,.68,1.2,2.14,2.14,0,0,1,.13.75,2.66,2.66,0,0,1-.06.64l-.12.56-9,3.06A3.72,3.72,0,0,0,20.7,24v6.79a13.31,13.31,0,0,0,1.77,6.6,17.2,17.2,0,0,0,1.33,2ZM12.61,16.25v.08a10.5,10.5,0,0,0,.75,3c0,.11.07.15.12.17l.43.2.12.45a2.74,2.74,0,0,1,.06.63c0,1,.74,2.28,2.08,3.57l.33.32,0,.45c-.11,2.29-.8,3.83-2,4.34L7.81,31.72A4.76,4.76,0,0,0,4.7,35.09l-.9,3.58a.31.31,0,0,0,.06.22.26.26,0,0,0,.21.11h17c-.13-.2-.25-.41-.37-.62a15.34,15.34,0,0,1-2-7.59V24a5.71,5.71,0,0,1,3.82-5.35l.18-.06,7.39-2.52a1.42,1.42,0,0,0-.37-.52l-.34-.3V11.09c0-2.35-.77-3.13-1.52-3.6l-.32-.19L27.43,7c-.36-1.09-2.09-3.16-6-3.16-4.64,0-7.9,4.73-7.9,7.29,0,1.46-.06,2.58-.1,3.29,0,0,0,.15,0,.25v.59l-.33.29a1.63,1.63,0,0,0-.44.75Z" transform="translate(-1.8 -1.8)"/><path d="M42.51,22.8l-8.87-3a1.28,1.28,0,0,0-.82,0L24,22.8A1.25,1.25,0,0,0,23.09,24v6.8c0,8.29,9.25,12.32,9.65,12.49a1.31,1.31,0,0,0,1,0c.39-.17,9.65-4.2,9.65-12.49V24a1.25,1.25,0,0,0-.87-1.19Zm-3.72,6.41-4.65,5.91a1.69,1.69,0,0,1-2.43.24l-3-2.54A1.69,1.69,0,1,1,31,30.26l1.62,1.38,3.56-4.52a1.68,1.68,0,0,1,2.37-.29,1.71,1.71,0,0,1,.29,2.38Zm0,0" transform="translate(-1.8 -1.8)"/></svg>