<svg id="Capa_1" data-name="Capa 1" xmlns="http://www.w3.org/2000/svg" viewBox="0 0 40.93 41.31"><defs><style>.cls-1{fill:#fff;}</style></defs><title>el-trueque-app-icono-6</title><path d="M42.91,12.62a.67.67,0,0,0-.54-.26H37.3a13,13,0,0,0-25.33,0H8.61L8.33,9.92a3.42,3.42,0,0,0-3.39-3H2.81a.69.69,0,1,0,0,1.37H4.94a2,2,0,0,1,2,1.81L10,36.63a3.38,3.38,0,0,0,3.06,3,4.09,4.09,0,0,0,8.06,0h7a4.09,4.09,0,1,0,0-1.37H21.16a4.08,4.08,0,0,0-8,0,2,2,0,0,1-1.72-1.78l-.57-5h21a8.84,8.84,0,0,0,8.64-6.87L43,13.19a.72.72,0,0,0-.13-.57ZM32.14,36.23A2.73,2.73,0,1,1,29.41,39,2.73,2.73,0,0,1,32.14,36.23Zm-15,0A2.73,2.73,0,1,1,14.4,39,2.73,2.73,0,0,1,17.13,36.23ZM24.64,3.49A11.6,11.6,0,1,1,13,15.09,11.59,11.59,0,0,1,24.64,3.49ZM39.08,24.28a7.48,7.48,0,0,1-7.31,5.82H10.66L8.77,13.72h3a13,13,0,1,0,25.77,2.75,12.64,12.64,0,0,0,0-2.75h4Z" transform="translate(-2.12 -1.75)"/><path d="M24.64,2.12a13,13,0,1,1-13,13A13,13,0,0,1,24.64,2.12Z" transform="translate(-2.12 -1.75)"/><path d="M24.64,28.43a13.34,13.34,0,0,1,0-26.68h0a13.34,13.34,0,0,1,0,26.68Zm0-25.93A12.59,12.59,0,1,0,37.23,15.09,12.61,12.61,0,0,0,24.64,2.5Z" transform="translate(-2.12 -1.75)"/><path class="cls-1" d="M24.64,21.23a2.73,2.73,0,0,1-2.73-2.73H20.54a4.11,4.11,0,0,0,3.41,4V24h1.37V22.53a4.09,4.09,0,0,0-.68-8.12,2.73,2.73,0,1,1,2.72-2.73h1.37a4.1,4.1,0,0,0-3.41-4V6.22H24V7.65a4.09,4.09,0,0,0,.69,8.12,2.73,2.73,0,0,1,0,5.46Z" transform="translate(-2.12 -1.75)"/></svg>