<?xml version="1.0" encoding="utf-8"?>
<!-- Generator: Adobe Illustrator 24.0.0, SVG Export Plug-In . SVG Version: 6.00 Build 0)  -->
<svg version="1.1" id="Capa_1" xmlns="http://www.w3.org/2000/svg" xmlns:xlink="http://www.w3.org/1999/xlink" x="0px" y="0px"
	 viewBox="0 0 52.9 52.9" style="enable-background:new 0 0 52.9 52.9;" xml:space="preserve">
<style type="text/css">
	.st0{fill:#071573;}
	.st1{fill:#FFFFFF;}
</style>
<title>el-trueque-app-icono-2</title>
<circle class="st0" cx="26.4" cy="26.4" r="26.4"/>
<path class="st1" d="M40.5,21.2L40.5,21.2L28.4,9.1c-0.5-0.5-1.2-0.8-1.9-0.8c-0.7,0-1.4,0.3-1.9,0.8L12.4,21.2l0,0
	c-1.1,1.1-1.1,2.8,0,3.9c0.5,0.5,1.2,0.8,1.9,0.8h0.6v8.9c0,1.8,1.4,3.2,3.2,3.2c0,0,0,0,0,0h4.7c0.5,0,0.9-0.4,0.9-0.9v-7
	c0-0.8,0.7-1.5,1.5-1.5h2.8c0.8,0,1.5,0.7,1.5,1.5v7c0,0.5,0.4,0.9,0.9,0.9H35c1.8,0,3.2-1.4,3.2-3.2v-8.9h0.5
	c1.5,0,2.7-1.2,2.7-2.8C41.3,22.4,41,21.7,40.5,21.2z M39.2,23.9c-0.2,0.2-0.4,0.3-0.7,0.3h-1.3c-0.5,0-0.9,0.4-0.9,0.9v9.8
	c0,0.8-0.7,1.5-1.5,1.5H31v-6.1c0-1.8-1.4-3.2-3.2-3.2c0,0,0,0,0,0H25c-1.8,0-3.2,1.4-3.2,3.2v6.1H18c-0.8,0-1.5-0.7-1.5-1.5V25
	c0-0.5-0.4-0.9-0.9-0.9h0h-1.3c-0.3,0-0.5-0.1-0.7-0.3c-0.4-0.4-0.4-1,0-1.4l0,0l12.1-12.1c0.4-0.4,1-0.4,1.4,0l12.1,12.1l0,0
	C39.6,22.9,39.6,23.5,39.2,23.9L39.2,23.9z"/>
</svg>
