<?xml version="1.0" encoding="utf-8"?>
<!-- Generator: Adobe Illustrator 24.0.0, SVG Export Plug-In . SVG Version: 6.00 Build 0)  -->
<svg version="1.1" id="Capa_1" xmlns="http://www.w3.org/2000/svg" xmlns:xlink="http://www.w3.org/1999/xlink" x="0px" y="0px"
	 viewBox="0 0 52.9 52.9" style="enable-background:new 0 0 52.9 52.9;" xml:space="preserve">
<style type="text/css">
	.st0{fill:#071573;}
	.st1{fill:#FFFFFF;}
</style>
<title>el-trueque-app-icono-1</title>
<circle class="st0" cx="26.4" cy="26.4" r="26.4"/>
<path class="st1" d="M28,37.4H14.7c-0.8,0-1.4-0.6-1.4-1.4c0-0.1,0-0.2,0-0.3l0.6-2.3c0.4-1.4,1.4-2.5,2.8-3l4.2-1.4
	c0.3-0.4,0.4-0.9,0.4-1.4c-0.8-0.7-1.4-1.8-1.5-2.9c-0.2-0.2-0.3-0.3-0.4-0.6c-0.3-0.8-0.5-1.6-0.6-2.4c0-0.1,0-0.2,0-0.3
	c0.1-0.3,0.2-0.7,0.5-0.9l0,0c0-0.5,0.1-1.2,0.1-2c0.3-3.2,3-5.7,6.3-5.9c3,0,4.5,1.6,5,2.6c1,0.8,1.5,2,1.4,3.2v2.1
	c0.2,0.2,0.3,0.5,0.4,0.8c0.1,0.1,0.1,0.3,0.1,0.5c0,0.1,0,0.3,0,0.4l-0.1,0.4l-5.7,1.9c-0.9,0.4-1.4,1.2-1.4,2.1v4.3
	c0,1.5,0.4,2.9,1.1,4.2c0.3,0.4,0.6,0.9,0.9,1.3L28,37.4z M20.1,21.6L20.1,21.6c0.1,0.7,0.2,1.3,0.5,1.9c0,0.1,0,0.1,0.1,0.1
	l0.3,0.1l0.1,0.3c0,0.1,0,0.3,0,0.4c0.1,0.9,0.6,1.7,1.3,2.3l0.2,0.2v0.3c-0.1,1.5-0.5,2.4-1.2,2.8L17,31.4c-1,0.3-1.8,1.1-2,2.1
	l-0.6,2.3c0,0,0,0.1,0,0.1c0,0,0.1,0.1,0.1,0.1h10.9l-0.3-0.3c-0.8-1.5-1.3-3.1-1.3-4.8v-4.3c0-1.5,1-2.9,2.4-3.3h0.1l4.7-1.6
	c-0.1-0.1-0.1-0.2-0.2-0.3l-0.2-0.2v-2.7c0-1.5-0.5-2-1-2.3L29.5,16l-0.1-0.2c-0.2-0.7-1.3-2-3.8-2c-2.6,0.2-4.6,2.1-5,4.6
	c0,0.9,0,1.6-0.1,2.1V21l-0.2,0.2C20.2,21.3,20.1,21.5,20.1,21.6L20.1,21.6z"/>
<path class="st1" d="M39.1,25.8l-5.6-1.9c-0.2-0.1-0.3-0.1-0.5,0l-5.6,1.9c-0.3,0.1-0.5,0.4-0.5,0.8v4.3c0,5.3,5.9,7.8,6.1,7.9
	c0.2,0.1,0.4,0.1,0.6,0c0.3-0.1,6.1-2.7,6.1-7.9v-4.3C39.6,26.2,39.4,25.9,39.1,25.8z M36.7,29.9l-3,3.8c-0.4,0.5-1,0.5-1.5,0.2
	c0,0,0,0,0,0l-1.9-1.6c-0.5-0.4-0.5-1.1-0.1-1.5c0.4-0.5,1.1-0.5,1.5-0.1l1,0.9l2.3-2.9c0.4-0.4,1.1-0.4,1.5,0
	C36.9,28.9,37,29.4,36.7,29.9L36.7,29.9z"/>
</svg>
