<svg id="Capa_1" data-name="Capa 1" xmlns="http://www.w3.org/2000/svg" viewBox="0 0 52.87 52.87"><defs><style>.cls-1{fill:#08141e;}.cls-2{fill:#ff1515;}</style></defs><title>el-trueque-app-icono-1</title><circle class="cls-1" cx="26.44" cy="26.44" r="26.44"/><path class="cls-2" d="M29.78,39.13H16.45a1.44,1.44,0,0,1-1.4-1.77l.57-2.29a4.28,4.28,0,0,1,2.81-3l4.2-1.39A2.24,2.24,0,0,0,23,29.29a4.66,4.66,0,0,1-1.5-2.86,1.45,1.45,0,0,1-.37-.56,7.48,7.48,0,0,1-.57-2.4,1.55,1.55,0,0,1,0-.31,2.38,2.38,0,0,1,.47-.94v0c0-.48.07-1.17.07-2.05a6.6,6.6,0,0,1,6.27-5.89c3,0,4.49,1.57,4.95,2.65a3.61,3.61,0,0,1,1.39,3.24v2.09a2.2,2.2,0,0,1,.43.76,1.16,1.16,0,0,1,.08.47,2.28,2.28,0,0,1,0,.42l-.08.35-5.7,1.94A2.34,2.34,0,0,0,27,28.34v4.31a8.38,8.38,0,0,0,1.12,4.19A10.21,10.21,0,0,0,29,38.1ZM21.87,23.42v0a6.5,6.5,0,0,0,.48,1.93c0,.07,0,.09.08.11l.26.12.08.29a1.49,1.49,0,0,1,0,.4,3.55,3.55,0,0,0,1.32,2.26l.21.2,0,.29c-.06,1.46-.5,2.44-1.24,2.75l-4.25,1.42a3,3,0,0,0-2,2.14l-.57,2.27a.19.19,0,0,0,0,.14.17.17,0,0,0,.13.07H27.26L27,37.47a9.74,9.74,0,0,1-1.28-4.82V28.34A3.59,3.59,0,0,1,28.16,25l.11,0,4.7-1.6a1.08,1.08,0,0,0-.24-.33l-.22-.19V20.15c0-1.49-.49-2-1-2.28l-.19-.12-.08-.22c-.22-.7-1.32-2-3.83-2a5.39,5.39,0,0,0-5,4.62c0,.92,0,1.63-.07,2.09v.53l-.21.19a1,1,0,0,0-.28.47Z" transform="translate(-1.77 -1.77)"/><path class="cls-2" d="M40.85,27.58l-5.64-1.92a.74.74,0,0,0-.51,0l-5.64,1.92a.8.8,0,0,0-.54.76v4.31c0,5.26,5.87,7.82,6.12,7.92a.77.77,0,0,0,.63,0c.25-.1,6.12-2.66,6.12-7.92V28.34a.8.8,0,0,0-.54-.76Zm-2.37,4.07L35.53,35.4a1.07,1.07,0,0,1-1.54.15l-1.88-1.61a1.07,1.07,0,0,1,1.4-1.63l1,.88,2.26-2.87a1.08,1.08,0,0,1,1.69,1.33Zm0,0" transform="translate(-1.77 -1.77)"/></svg>