<?xml version="1.0" encoding="utf-8"?>
<!-- Generator: Adobe Illustrator 24.0.0, SVG Export Plug-In . SVG Version: 6.00 Build 0)  -->
<svg version="1.1" id="Capa_1" xmlns="http://www.w3.org/2000/svg" xmlns:xlink="http://www.w3.org/1999/xlink" x="0px" y="0px"
	 viewBox="0 0 52.9 52.9" style="enable-background:new 0 0 52.9 52.9;" xml:space="preserve">
<style type="text/css">
	.st0{fill:#071573;}
	.st1{fill:#FFFFFF;}
</style>
<title>el-trueque-app-icono-4</title>
<circle class="st0" cx="26.4" cy="26.4" r="26.4"/>
<path class="st1" d="M35.9,12.9H22.4c-1.7,0-3.1,1.4-3.1,3.1c0,0,0,0,0,0v6.3c0,0.6,0.5,1,1,1c0.6,0,1-0.5,1-1V16c0-0.6,0.4-1,1-1
	h13.6c0.6,0,1,0.4,1,1v22.9c0,0.6-0.4,1-1,1H22.4c-0.6,0-1-0.4-1-1v-6.3c0-0.6-0.5-1-1-1c-0.6,0-1,0.5-1,1v6.3
	c0,1.7,1.4,3.1,3.1,3.1l0,0h13.5c1.7,0,3.1-1.4,3.1-3.1V16C39,14.3,37.6,12.9,35.9,12.9z"/>
<path class="st1" d="M10,27c-0.1,0.3-0.1,0.5,0,0.8c0.1,0.1,0.1,0.2,0.2,0.3l5.2,5.2c0.4,0.4,1.1,0.4,1.5,0c0.4-0.4,0.4-1.1,0-1.5
	l0,0l-3.5-3.5h17.3c0.6,0,1-0.5,1-1s-0.5-1-1-1H13.4l3.4-3.4c0.4-0.4,0.4-1,0.1-1.4c0,0,0,0-0.1-0.1c-0.4-0.4-1-0.4-1.4,0
	c0,0,0,0,0,0l-5.2,5.2C10.1,26.8,10,26.9,10,27z"/>
</svg>
