<?xml version="1.0" encoding="utf-8"?>
<!-- Generator: Adobe Illustrator 24.0.0, SVG Export Plug-In . SVG Version: 6.00 Build 0)  -->
<svg version="1.1" id="Capa_1" xmlns="http://www.w3.org/2000/svg" xmlns:xlink="http://www.w3.org/1999/xlink" x="0px" y="0px"
	 viewBox="0 0 52.9 52.9" style="enable-background:new 0 0 52.9 52.9;" xml:space="preserve">
<style type="text/css">
	.st0{fill:#071573;}
	.st1{fill:#FFFFFF;}
</style>
<title>el-trueque-app-icono-3</title>
<circle class="st0" cx="26.4" cy="26.4" r="26.4"/>
<path class="st1" d="M39.7,39.4c7.1-7.2,7.1-18.8,0-25.9s-18.8-7.1-25.9,0s-7.1,18.8,0,25.9c3.4,3.4,8.1,5.3,12.9,5.3
	C31.6,44.8,36.3,42.9,39.7,39.4z M10.5,26.4c0-8.9,7.2-16.2,16.2-16.2c8.9,0,16.2,7.2,16.2,16.2c0,4.1-1.6,8.1-4.4,11.1
	c0.1-4-2.8-7.3-6.7-7.8c0.1-0.1,0.3-0.3,0.4-0.4c1.3-1.5,2-3.4,2-5.4c0-0.1,0-0.1,0-0.2c-0.5-4.1-4.2-7.1-8.4-6.6
	c-3.7,0.4-6.5,3.5-6.6,7.2c0,2.1,0.8,4,2.3,5.4c-3.9,0.5-6.7,3.9-6.6,7.8C12.1,34.5,10.6,30.5,10.5,26.4L10.5,26.4z M21.4,24.2
	c0.1-3,2.5-5.3,5.5-5.3c2.8,0.1,5.1,2.3,5.2,5.1c0,2.9-2.2,5.3-5.1,5.6c-3,0.2-5.5-2.1-5.7-5.1C21.4,24.5,21.4,24.4,21.4,24.2
	L21.4,24.2z M21.4,41.7v-4.5c0.1-0.6-0.3-1.1-0.9-1.2s-1.1,0.3-1.2,0.9c0,0.1,0,0.2,0,0.3v3.5c-0.8-0.4-1.5-0.9-2.1-1.4v-2.2
	c0-3,2.4-5.4,5.4-5.5h8.6c3,0,5.4,2.5,5.4,5.5v2.2c-0.7,0.5-1.4,1-2.2,1.4v-3.5c0.1-0.6-0.4-1.1-1-1.2c-0.6-0.1-1.1,0.4-1.2,1
	c0,0.1,0,0.1,0,0.2v4.5C28.6,42.9,24.9,42.9,21.4,41.7z"/>
</svg>
