<svg id="Capa_1" data-name="Capa 1" xmlns="http://www.w3.org/2000/svg" viewBox="0 0 52.87 52.87"><defs><style>.cls-1{fill:#08141e;}.cls-2{fill:#ff1515;}</style></defs><title>el-trueque-app-icono-4</title><circle class="cls-1" cx="26.44" cy="26.44" r="26.44"/><path class="cls-2" d="M37.67,14.63H24.14A3.12,3.12,0,0,0,21,17.75V24a1,1,0,1,0,2.08,0V17.75a1,1,0,0,1,1-1H37.67a1,1,0,0,1,1,1V40.66a1,1,0,0,1-1,1H24.14a1,1,0,0,1-1-1V34.41a1,1,0,0,0-2.08,0v6.25a3.12,3.12,0,0,0,3.12,3.12H37.67a3.12,3.12,0,0,0,3.12-3.12V17.75A3.12,3.12,0,0,0,37.67,14.63Z" transform="translate(-1.77 -1.77)"/><path class="cls-2" d="M11.73,28.81a1,1,0,0,0,0,.79,1.11,1.11,0,0,0,.22.34l5.21,5.21a1,1,0,0,0,1.5-1.45l0,0L15.2,30.25H32.47a1,1,0,0,0,0-2.09H15.2l3.43-3.42a1,1,0,0,0,0-1.48,1,1,0,0,0-1.44,0L12,28.47A1.11,1.11,0,0,0,11.73,28.81Z" transform="translate(-1.77 -1.77)"/></svg>