<svg id="Capa_1" data-name="Capa 1" xmlns="http://www.w3.org/2000/svg" viewBox="0 0 52.87 52.87"><defs><style>.cls-1{fill:#08141e;}.cls-2{fill:#ff1515;}</style></defs><title>el-trueque-app-icono-3</title><circle class="cls-1" cx="26.44" cy="26.44" r="26.44"/><path class="cls-2" d="M41.48,41.17a18.33,18.33,0,1,0-13,5.39A18.22,18.22,0,0,0,41.48,41.17Zm-29.16-13a16.2,16.2,0,1,1,28,11.06,7.59,7.59,0,0,0-6.72-7.79A5.49,5.49,0,0,0,34,31a8.1,8.1,0,0,0,2-5.35.78.78,0,0,0,0-.22,7.53,7.53,0,0,0-15,.58,7.43,7.43,0,0,0,2.32,5.43,7.59,7.59,0,0,0-6.62,7.78A16.15,16.15,0,0,1,12.32,28.2Zm10.82-2.15a5.38,5.38,0,0,1,10.75-.18,5.62,5.62,0,0,1-5.08,5.55A5.37,5.37,0,0,1,23.14,26.05Zm0,17.44V39A1.08,1.08,0,1,0,21,39v3.52a16.57,16.57,0,0,1-2.15-1.36V39a5.42,5.42,0,0,1,5.38-5.45h8.6A5.42,5.42,0,0,1,38.2,39v2.16a16.57,16.57,0,0,1-2.15,1.36V39a1.08,1.08,0,1,0-2.15,0v4.46a16.36,16.36,0,0,1-10.76,0Z" transform="translate(-1.77 -1.77)"/></svg>