<?xml version="1.0" encoding="utf-8"?>
<!-- Generator: Adobe Illustrator 24.0.0, SVG Export Plug-In . SVG Version: 6.00 Build 0)  -->
<svg version="1.1" id="Capa_1" xmlns="http://www.w3.org/2000/svg" xmlns:xlink="http://www.w3.org/1999/xlink" x="0px" y="0px"
	 viewBox="0 0 215 236" style="enable-background:new 0 0 215 236;" xml:space="preserve">
<style type="text/css">
	.st0{fill:#B80F0F;}
	.st1{fill:#FFFFFF;}
</style>
<path d="M-1954.9,3180.9L-1954.9,3180.9c-12.3,0-22.3-10-22.3-22.4v-61.3h22.3V3180.9z"/>
<path d="M-1968.5,3141.9h-8.6c-12.3,0-22.3-10-22.3-22.3l0,0h30.8L-1968.5,3141.9L-1968.5,3141.9z"/>
<path d="M-1927.2,3141.9L-1927.2,3141.9c-12.3,0-22.3-10-22.3-22.3l0,0h22.3V3141.9z"/>
<circle cx="-1938.3" cy="3169.7" r="11.4"/>
<path d="M-2188.5,3050.6L-2188.5,3050.6c-12.3,0-22.4-10-22.4-22.4v-61.3h22.4V3050.6z"/>
<path d="M-2202.1,3011.5h-8.6c-12.3,0-22.3-10-22.3-22.3l0,0h30.8v22.3H-2202.1z"/>
<path d="M-2166.3,3011.5L-2166.3,3011.5c-12.3,0-22.3-10-22.3-22.3l0,0h22.3V3011.5z"/>
<ellipse cx="-2172" cy="3039.5" rx="11.4" ry="11.4"/>
<g>
	<g>
		<path class="st0" d="M72.2,49.3v-7.4c0-16.6-13.5-30.1-30.1-30.1h-12v37.5L72.2,49.3L72.2,49.3z"/>
	</g>
	<path class="st1" d="M117.5,11.8L117.5,11.8C98,12.1,82.4,27.9,82.4,47.4V113c0,19.6,15.9,35.6,35.6,35.6V60.5
		c0-6.2,5-11.2,11.1-11.2h31V11.8H117.5z"/>
	<circle class="st0" cx="149.1" cy="128" r="20.6"/>
	<g>
		<path class="st1" d="M17.4,177.5H8.3v-7.1h26v7.1h-9.1v23.2h-7.9L17.4,177.5L17.4,177.5z"/>
		<path class="st1" d="M52.8,194.1v6.6c-1.5,0.4-3.1,0.6-4.6,0.6c-6.5,0-10.1-3.1-10.1-9.3v-7.6h-3.5v-6.6h3.5v-5.5H46v5.5h6.1v6.6
			H46v6.8c0,2.2,1.1,3,3.9,3L52.8,194.1z"/>
		<path class="st1" d="M72.1,184.8h-1.9c-3.6,0-5.5,1.6-5.5,5.5v10.5h-7.9v-22.9H64v2.4c1.4-1.8,3.4-2.8,5.8-2.8
			c0.8,0,1.6,0.1,2.2,0.4L72.1,184.8L72.1,184.8z"/>
		<path class="st1" d="M75.2,177.8h7.9v12.9c0,2,1.4,3.4,3.4,3.4c1.9,0,3.3-1.4,3.3-3.4v-12.9h7.9V190c0,6.7-4.7,11.2-11.2,11.2
			s-11.2-4.5-11.2-11.2L75.2,177.8L75.2,177.8z"/>
		<path class="st1" d="M109.5,192c0.9,1.7,2.6,2.6,5.1,2.6c2.1,0,4-0.6,6-1.8l2.8,5.4c-2.7,2.1-5.8,3.1-9.1,3.1
			c-7.5,0-12.9-5.2-12.9-12c0-6.7,5.4-12,12.2-12c6.6,0,11,4.9,11,10.9c0,1.4-0.2,2.7-0.5,3.9L109.5,192L109.5,192z M117.2,186.8
			c-0.1-2.1-1.7-3.4-3.8-3.4c-2,0-3.6,1.2-4.2,3.4H117.2z"/>
		<path class="st1" d="M152.3,177.8V209h-7.9v-9.8c-1.5,1.4-3.4,2.1-5.9,2.1c-6.3,0-11-5.1-11-12.1s4.6-12,11-12
			c2.9,0,5.1,1,6.6,2.9v-2.4h7.2V177.8z M140.1,184.4c-2.5,0-4.5,1.8-4.5,4.9s2.1,4.9,4.5,4.9s4.5-1.8,4.5-4.9
			C144.5,186.1,142.5,184.4,140.1,184.4z"/>
		<path class="st1" d="M157.2,177.8h7.9v12.9c0,2,1.4,3.4,3.4,3.4c1.9,0,3.3-1.4,3.3-3.4v-12.9h7.9V190c0,6.7-4.7,11.2-11.2,11.2
			s-11.2-4.5-11.2-11.2L157.2,177.8L157.2,177.8z"/>
		<path class="st1" d="M191.5,192c0.9,1.7,2.6,2.6,5.1,2.6c2.1,0,4-0.6,6-1.8l2.8,5.4c-2.7,2.1-5.8,3.1-9.1,3.1
			c-7.5,0-12.9-5.2-12.9-12c0-6.7,5.4-12,12.2-12c6.6,0,11,4.9,11,10.9c0,1.4-0.2,2.7-0.5,3.9L191.5,192L191.5,192z M199.2,186.8
			c0-2.1-1.7-3.4-3.8-3.4c-2,0-3.6,1.2-4.2,3.4H199.2z"/>
	</g>
	<g>
		<path class="st1" d="M25.8,217.4h1.6l1.8,4.7l1.8-4.7h1.6l-2.7,6.8h-1.3L25.8,217.4z"/>
		<path class="st1" d="M33.6,217.4h5.1v1.3H35v1.4h3.2v1.3H35v1.4h3.6v1.3h-5.1L33.6,217.4L33.6,217.4z"/>
		<path class="st1" d="M40,217.4h1.4l3.1,4.1v-4.1H46v6.7h-1.2l-3.2-4.3v4.3H40V217.4z"/>
		<path class="st1" d="M47.5,217.4h2.6c2.1,0,3.6,1.5,3.6,3.3l0,0c0,1.9-1.5,3.4-3.6,3.4h-2.6V217.4z M49,218.7v4h1.1
			c1.2,0,2-0.8,2-2l0,0c0-1.2-0.8-2-2-2H49L49,218.7z"/>
		<path class="st1" d="M55,217.4h5.1v1.3h-3.6v1.4h3.2v1.3h-3.2v1.4h3.6v1.3H55V217.4z"/>
		<path class="st1" d="M61.4,217.4h3.1c0.9,0,1.5,0.2,1.9,0.7c0.4,0.4,0.6,0.9,0.6,1.5l0,0c0,1.1-0.6,1.8-1.4,2.1l1.6,2.4h-1.7
			l-1.4-2.1h-1.2v2.1h-1.5C61.4,224.1,61.4,217.4,61.4,217.4z M64.4,220.6c0.7,0,1.1-0.4,1.1-1l0,0c0-0.6-0.4-1-1.2-1h-1.5v1.9h1.6
			V220.6z"/>
		<path class="st1" d="M73.1,221.4l-2.6-4.1h1.7l1.6,2.7l1.6-2.7h1.7l-2.6,4v2.7H73v-2.6H73.1z"/>
		<path class="st1" d="M80.6,220.7L80.6,220.7c0-1.9,1.4-3.5,3.5-3.5c1.3,0,2,0.4,2.6,1l-0.9,1.1c-0.5-0.5-1-0.8-1.7-0.8
			c-1.1,0-1.9,0.9-1.9,2.1l0,0c0,1.1,0.8,2.1,1.9,2.1c0.8,0,1.2-0.3,1.8-0.8l0.9,1c-0.7,0.7-1.5,1.2-2.8,1.2
			C82.1,224.2,80.6,222.7,80.6,220.7z"/>
		<path class="st1" d="M87.5,220.7L87.5,220.7c0-1.9,1.5-3.5,3.6-3.5s3.6,1.5,3.6,3.5l0,0c0,1.9-1.5,3.5-3.6,3.5
			S87.5,222.7,87.5,220.7z M93.1,220.7L93.1,220.7c0-1.2-0.8-2.1-2-2.1s-2,0.9-2,2.1l0,0c0,1.1,0.8,2.1,2,2.1S93.1,221.9,93.1,220.7
			z"/>
		<path class="st1" d="M95.9,217.4h1.6l1.8,2.8l1.8-2.8h1.6v6.7h-1.5v-4.4l-1.9,2.9l0,0l-1.9-2.8v4.4H96L95.9,217.4L95.9,217.4z"/>
		<path class="st1" d="M104.2,217.4h2.7c1.6,0,2.6,1,2.6,2.3l0,0c0,1.5-1.2,2.4-2.7,2.4h-1.1v2h-1.5V217.4L104.2,217.4z
			 M106.9,220.8c0.7,0,1.2-0.4,1.2-1l0,0c0-0.7-0.5-1-1.2-1h-1.1v2H106.9z"/>
		<path class="st1" d="M110.6,217.4h3.1c0.9,0,1.5,0.2,1.9,0.7c0.4,0.4,0.6,0.9,0.6,1.5l0,0c0,1.1-0.6,1.8-1.4,2.1l1.6,2.4h-1.7
			l-1.4-2.1h-1.2v2.1h-1.5V217.4L110.6,217.4z M113.6,220.6c0.7,0,1.1-0.4,1.1-1l0,0c0-0.6-0.4-1-1.2-1H112v1.9h1.6V220.6z"/>
		<path class="st1" d="M119.9,217.3h1.4l2.9,6.8h-1.5l-0.6-1.5h-2.8l-0.6,1.5H117L119.9,217.3z M121.4,221.3l-0.9-2.2l-0.9,2.2
			H121.4z"/>
		<path class="st1" d="M125.1,217.4h3.1c0.9,0,1.5,0.2,2,0.7c0.4,0.4,0.6,0.9,0.6,1.5l0,0c0,1.1-0.6,1.8-1.4,2.1l1.6,2.4h-1.7
			l-1.4-2.1h-1.2v2.1h-1.5L125.1,217.4L125.1,217.4z M128.1,220.6c0.7,0,1.1-0.4,1.1-1l0,0c0-0.6-0.4-1-1.2-1h-1.5v1.9h1.6V220.6z"
			/>
		<path class="st1" d="M134.4,223.1l0.9-1c0.6,0.5,1.2,0.8,2,0.8c0.6,0,1-0.2,1-0.6l0,0c0-0.4-0.2-0.6-1.4-0.9
			c-1.4-0.3-2.2-0.7-2.2-2l0,0c0-1.2,1-2,2.4-2c1,0,1.8,0.3,2.5,0.9l-0.8,1.1c-0.6-0.4-1.2-0.7-1.7-0.7c-0.6,0-0.9,0.3-0.9,0.6l0,0
			c0,0.4,0.3,0.6,1.5,0.9c1.4,0.4,2.1,0.8,2.1,2l0,0c0,1.3-1,2.1-2.5,2.1C136.3,224.2,135.2,223.8,134.4,223.1z"/>
		<path class="st1" d="M141.1,217.4h1.5v6.7h-1.5V217.4z"/>
		<path class="st1" d="M144.2,217.4h1.4l3.1,4.1v-4.1h1.5v6.7H149l-3.2-4.3v4.3h-1.5v-6.7H144.2z"/>
		<path class="st1" d="M154.7,217.4h2.6c2.1,0,3.6,1.5,3.6,3.3l0,0c0,1.9-1.5,3.4-3.6,3.4h-2.6V217.4z M156.1,218.7v4h1.1
			c1.2,0,2-0.8,2-2l0,0c0-1.2-0.8-2-2-2H156.1L156.1,218.7z"/>
		<path class="st1" d="M162.2,217.4h1.5v6.7h-1.5V217.4z"/>
		<path class="st1" d="M165.4,217.4h1.4l3.1,4.1v-4.1h1.5v6.7h-1.2l-3.2-4.3v4.3h-1.5v-6.7H165.4z"/>
		<path class="st1" d="M172.9,217.4h5.1v1.3h-3.6v1.4h3.2v1.3h-3.2v1.4h3.6v1.3h-5.1V217.4L172.9,217.4z"/>
		<path class="st1" d="M179.3,217.4h3.1c0.9,0,1.5,0.2,2,0.7c0.4,0.4,0.6,0.9,0.6,1.5l0,0c0,1.1-0.6,1.8-1.4,2.1l1.6,2.4h-1.7
			l-1.4-2.1h-1.2v2.1h-1.5L179.3,217.4L179.3,217.4z M182.3,220.6c0.7,0,1.1-0.4,1.1-1l0,0c0-0.6-0.4-1-1.2-1h-1.5v1.9h1.6V220.6z"
			/>
		<path class="st1" d="M185.9,220.7L185.9,220.7c0-1.9,1.5-3.5,3.6-3.5s3.5,1.5,3.5,3.5l0,0c0,1.9-1.5,3.5-3.6,3.5
			C187.4,224.2,185.9,222.7,185.9,220.7z M191.5,220.7L191.5,220.7c0-1.2-0.8-2.1-2-2.1s-2,0.9-2,2.1l0,0c0,1.1,0.8,2.1,2,2.1
			S191.5,221.9,191.5,220.7z"/>
	</g>
</g>
</svg>
