<?xml version="1.0" encoding="utf-8"?>
<!-- Generator: Adobe Illustrator 24.0.2, SVG Export Plug-In . SVG Version: 6.00 Build 0)  -->
<svg version="1.1" id="Capa_1" xmlns="http://www.w3.org/2000/svg" xmlns:xlink="http://www.w3.org/1999/xlink" x="0px" y="0px"
	 viewBox="0 0 462.72 335.47" style="enable-background:new 0 0 462.72 335.47;" xml:space="preserve">
<style type="text/css">
	.st0{fill:#FF1515;}
</style>
<path d="M-1829.87,3228.88L-1829.87,3228.88c-12.34,0-22.35-10.01-22.35-22.35v-61.32h22.35V3228.88z"/>
<path d="M-1843.46,3189.85h-8.58c-12.29,0-22.26-9.97-22.26-22.26l0,0h30.84V3189.85z"/>
<path d="M-1802.23,3189.85L-1802.23,3189.85c-12.29,0-22.26-9.97-22.26-22.26l0,0h22.26V3189.85z"/>
<circle cx="-1813.35" cy="3217.7" r="11.38"/>
<path d="M-2063.52,3098.57L-2063.52,3098.57c-12.34,0-22.35-10.01-22.35-22.35v-61.32h22.35V3098.57z"/>
<path d="M-2077.11,3059.54h-8.58c-12.29,0-22.26-9.96-22.26-22.26l0,0h30.84V3059.54z"/>
<path d="M-2041.26,3059.54L-2041.26,3059.54c-12.29,0-22.26-9.96-22.26-22.26l0,0h22.26V3059.54z"/>
<circle cx="-2047.01" cy="3087.39" r="11.38"/>
<g>
	<g>
		<path class="st0" d="M196.03,99.08v-7.43c0-16.63-13.48-30.11-30.11-30.11h-11.94v37.55H196.03z"/>
	</g>
	<path d="M241.31,61.54v0.02c-19.42,0.26-35.09,16.07-35.09,35.55v65.62c0,19.65,15.93,35.57,35.57,35.57v-88.07
		c0-6.16,4.99-11.15,11.15-11.15h30.98V61.54H241.31z"/>
	<circle class="st0" cx="272.92" cy="177.7" r="20.6"/>
	<g>
		<path d="M141.26,227.29h-9.08v-7.11h26.04v7.11h-9.08v23.16h-7.89V227.29z"/>
		<path d="M176.67,243.84v6.6c-1.51,0.37-3.07,0.55-4.63,0.55c-6.47,0-10.09-3.12-10.09-9.31v-7.57h-3.48v-6.6h3.48v-5.5h7.89v5.5
			h6.14v6.6h-6.14v6.79c0,2.2,1.06,3.03,3.94,3.03L176.67,243.84z"/>
		<path d="M195.93,234.49h-1.88c-3.62,0-5.46,1.65-5.46,5.5v10.46h-7.89v-22.93h7.2v2.43c1.42-1.79,3.44-2.8,5.78-2.8
			c0.83,0,1.56,0.14,2.25,0.37V234.49z"/>
		<path d="M199.1,227.52h7.89v12.88c0,1.97,1.38,3.35,3.35,3.35c1.88,0,3.3-1.38,3.3-3.35v-12.88h7.89v12.24
			c0,6.74-4.72,11.23-11.19,11.23c-6.46,0-11.23-4.5-11.23-11.23V227.52z"/>
		<path d="M233.35,241.73c0.87,1.74,2.57,2.61,5.14,2.61c2.06,0,4.03-0.6,6.01-1.79l2.84,5.37c-2.71,2.06-5.78,3.07-9.12,3.07
			c-7.48,0-12.89-5.23-12.89-12.01c0-6.74,5.41-12.01,12.24-12.01c6.6,0,10.96,4.95,10.96,10.87c0,1.38-0.19,2.66-0.51,3.9H233.35z
			 M241.06,236.59c-0.05-2.06-1.74-3.44-3.8-3.44c-1.97,0-3.58,1.24-4.17,3.44H241.06z"/>
		<path d="M276.14,227.52v31.18h-7.89v-9.81c-1.51,1.42-3.44,2.11-5.87,2.11c-6.33,0-11-5.09-11-12.06c0-6.97,4.59-11.97,11-11.97
			c2.93,0,5.13,0.96,6.56,2.93v-2.38H276.14z M263.94,234.12c-2.52,0-4.49,1.79-4.49,4.86s2.06,4.86,4.49,4.86
			c2.43,0,4.45-1.79,4.45-4.91C268.39,235.81,266.37,234.12,263.94,234.12z"/>
		<path d="M281.1,227.52h7.89v12.88c0,1.97,1.38,3.35,3.35,3.35c1.88,0,3.3-1.38,3.3-3.35v-12.88h7.89v12.24
			c0,6.74-4.72,11.23-11.19,11.23c-6.46,0-11.23-4.5-11.23-11.23V227.52z"/>
		<path d="M315.35,241.73c0.87,1.74,2.57,2.61,5.14,2.61c2.06,0,4.03-0.6,6.01-1.79l2.84,5.37c-2.71,2.06-5.78,3.07-9.12,3.07
			c-7.48,0-12.89-5.23-12.89-12.01c0-6.74,5.41-12.01,12.24-12.01c6.6,0,10.96,4.95,10.96,10.87c0,1.38-0.19,2.66-0.51,3.9H315.35z
			 M323.06,236.59c-0.05-2.06-1.74-3.44-3.8-3.44c-1.97,0-3.58,1.24-4.17,3.44H323.06z"/>
	</g>
	<g>
		<path d="M149.68,267.12h1.63l1.75,4.72l1.75-4.72h1.59l-2.71,6.75h-1.3L149.68,267.12z"/>
		<path d="M157.43,267.12h5.06v1.31h-3.59v1.36h3.16v1.31h-3.16v1.41h3.64v1.31h-5.11V267.12z"/>
		<path d="M163.84,267.12h1.36l3.14,4.13v-4.13h1.46v6.71h-1.25l-3.25-4.26v4.26h-1.46V267.12z"/>
		<path d="M171.4,267.12h2.61c2.11,0,3.56,1.45,3.56,3.33v0.02c0,1.89-1.46,3.35-3.56,3.35h-2.61V267.12z M172.87,268.45v4.04h1.14
			c1.21,0,2.02-0.82,2.02-2v-0.02c0-1.19-0.81-2.02-2.02-2.02H172.87z"/>
		<path d="M178.88,267.12h5.06v1.31h-3.59v1.36h3.16v1.31h-3.16v1.41h3.64v1.31h-5.11V267.12z"/>
		<path d="M185.29,267.12h3.07c0.85,0,1.51,0.24,1.95,0.68c0.37,0.38,0.58,0.9,0.58,1.53v0.02c0,1.08-0.58,1.76-1.44,2.08l1.64,2.4
			h-1.72l-1.44-2.15h-1.16v2.15h-1.48V267.12z M188.26,270.38c0.72,0,1.13-0.38,1.13-0.95v-0.02c0-0.63-0.44-0.96-1.16-0.96h-1.46
			v1.93H188.26z"/>
		<path d="M196.96,271.18l-2.58-4.06h1.72l1.6,2.69l1.63-2.69h1.68l-2.58,4.03v2.67h-1.47V271.18z"/>
		<path d="M204.5,270.49v-0.02c0-1.91,1.44-3.47,3.5-3.47c1.26,0,2.02,0.42,2.64,1.03l-0.94,1.08c-0.52-0.47-1.04-0.76-1.71-0.76
			c-1.13,0-1.94,0.94-1.94,2.09v0.02c0,1.15,0.8,2.11,1.94,2.11c0.77,0,1.24-0.31,1.76-0.79l0.94,0.95c-0.69,0.74-1.46,1.2-2.75,1.2
			C205.96,273.94,204.5,272.42,204.5,270.49z"/>
		<path d="M211.37,270.49v-0.02c0-1.91,1.5-3.47,3.57-3.47c2.07,0,3.55,1.54,3.55,3.45v0.02c0,1.91-1.5,3.47-3.57,3.47
			C212.85,273.94,211.37,272.4,211.37,270.49z M216.95,270.49v-0.02c0-1.15-0.84-2.11-2.03-2.11c-1.19,0-2.01,0.94-2.01,2.09v0.02
			c0,1.15,0.84,2.11,2.03,2.11C216.13,272.58,216.95,271.64,216.95,270.49z"/>
		<path d="M219.8,267.12h1.59l1.76,2.83l1.76-2.83h1.59v6.71h-1.47v-4.38l-1.89,2.86h-0.04l-1.87-2.83v4.35h-1.45V267.12z"/>
		<path d="M228.1,267.12h2.74c1.6,0,2.57,0.95,2.57,2.32v0.02c0,1.55-1.21,2.35-2.71,2.35h-1.12v2.01h-1.48V267.12z M230.74,270.5
			c0.74,0,1.17-0.44,1.17-1.01v-0.02c0-0.66-0.46-1.02-1.2-1.02h-1.14v2.05H230.74z"/>
		<path d="M234.49,267.12h3.07c0.85,0,1.51,0.24,1.95,0.68c0.37,0.38,0.58,0.9,0.58,1.53v0.02c0,1.08-0.58,1.76-1.44,2.08l1.64,2.4
			h-1.73l-1.44-2.15h-1.16v2.15h-1.48V267.12z M237.46,270.38c0.72,0,1.13-0.38,1.13-0.95v-0.02c0-0.63-0.44-0.96-1.16-0.96h-1.46
			v1.93H237.46z"/>
		<path d="M243.71,267.07h1.36l2.87,6.75h-1.54l-0.61-1.5h-2.83l-0.61,1.5h-1.5L243.71,267.07z M245.26,271.02l-0.89-2.17
			l-0.89,2.17H245.26z"/>
		<path d="M248.96,267.12h3.07c0.85,0,1.51,0.24,1.96,0.68c0.37,0.38,0.58,0.9,0.58,1.53v0.02c0,1.08-0.58,1.76-1.44,2.08l1.64,2.4
			h-1.72l-1.44-2.15h-1.16v2.15h-1.48V267.12z M251.93,270.38c0.72,0,1.13-0.38,1.13-0.95v-0.02c0-0.63-0.44-0.96-1.16-0.96h-1.47
			v1.93H251.93z"/>
		<path d="M258.29,272.85l0.87-1.05c0.6,0.5,1.24,0.82,2,0.82c0.6,0,0.97-0.24,0.97-0.63v-0.02c0-0.37-0.23-0.57-1.35-0.85
			c-1.35-0.34-2.22-0.72-2.22-2.05v-0.02c0-1.22,0.98-2.02,2.35-2.02c0.98,0,1.81,0.31,2.49,0.85l-0.77,1.11
			c-0.59-0.41-1.18-0.66-1.74-0.66c-0.57,0-0.86,0.26-0.86,0.58v0.02c0,0.44,0.29,0.58,1.45,0.88c1.36,0.35,2.13,0.84,2.13,2.01
			v0.02c0,1.33-1.02,2.08-2.46,2.08C260.12,273.92,259.1,273.57,258.29,272.85z"/>
		<path d="M264.94,267.12h1.48v6.71h-1.48V267.12z"/>
		<path d="M268.09,267.12h1.36l3.14,4.13v-4.13h1.46v6.71h-1.25l-3.25-4.26v4.26h-1.46V267.12z"/>
		<path d="M278.52,267.12h2.61c2.11,0,3.56,1.45,3.56,3.33v0.02c0,1.89-1.46,3.35-3.56,3.35h-2.61V267.12z M279.99,268.45v4.04h1.14
			c1.21,0,2.02-0.82,2.02-2v-0.02c0-1.19-0.82-2.02-2.02-2.02H279.99z"/>
		<path d="M286.07,267.12h1.47v6.71h-1.47V267.12z"/>
		<path d="M289.21,267.12h1.36l3.14,4.13v-4.13h1.46v6.71h-1.25l-3.25-4.26v4.26h-1.46V267.12z"/>
		<path d="M296.77,267.12h5.06v1.31h-3.59v1.36h3.16v1.31h-3.16v1.41h3.64v1.31h-5.11V267.12z"/>
		<path d="M303.18,267.12h3.07c0.85,0,1.51,0.24,1.96,0.68c0.37,0.38,0.58,0.9,0.58,1.53v0.02c0,1.08-0.58,1.76-1.44,2.08l1.64,2.4
			h-1.72l-1.44-2.15h-1.16v2.15h-1.48V267.12z M306.15,270.38c0.72,0,1.13-0.38,1.13-0.95v-0.02c0-0.63-0.44-0.96-1.16-0.96h-1.47
			v1.93H306.15z"/>
		<path d="M309.8,270.49v-0.02c0-1.91,1.5-3.47,3.57-3.47c2.07,0,3.55,1.54,3.55,3.45v0.02c0,1.91-1.5,3.47-3.57,3.47
			C311.28,273.94,309.8,272.4,309.8,270.49z M315.38,270.49v-0.02c0-1.15-0.84-2.11-2.03-2.11c-1.19,0-2.01,0.94-2.01,2.09v0.02
			c0,1.15,0.84,2.11,2.03,2.11C314.56,272.58,315.38,271.64,315.38,270.49z"/>
	</g>
</g>
</svg>
